PathFileType	4	(X/Y/Z)	Walk3.trc
DataRate	CameraRate	NumFrames	NumMarkers	Units	OrigDataRate	OrigDataStartFrame	OrigNumFrames
200.000000	200.000000	4	59	mm	200.000000	416	508
Frame#	Times		LFHD		RFHD		LBHD		RBHD		C7		T10		CLAV		STRN		RBack		LASI		RACR1		RUA1		RElbow		RFA1		RWRR		RWRU		RCAR		LACR1		LUA1		LElbow		LElbowM		LFA1		LWRR		LWRU		LCAR		RTH1		RTH3		RTH2		RTB1		RTB4		LTH1		LTH3		LTH2		LTH4		LLFC		LTB1		LTB2		LTB4		LMT1		LToe		LMMAL		RTB2		RTH4		LCAL		LTB3		RElbowM		LMT5		RTB3		LPSI		RPSI		LLMAL		RLFC		RASI		RMT1		RToe		RCAL		RMMAL		RMT5		RLMAL
			X1	Y1	Z1	X2	Y2	Z2	X3	Y3	Z3	X4	Y4	Z4	X5	Y5	Z5	X6	Y6	Z6	X7	Y7	Z7	X8	Y8	Z8	X9	Y9	Z9	X10	Y10	Z10	X11	Y11	Z11	X12	Y12	Z12	X13	Y13	Z13	X14	Y14	Z14	X15	Y15	Z15	X16	Y16	Z16	X17	Y17	Z17	X18	Y18	Z18	X19	Y19	Z19	X20	Y20	Z20	X21	Y21	Z21	X22	Y22	Z22	X23	Y23	Z23	X24	Y24	Z24	X25	Y25	Z25	X26	Y26	Z26	X27	Y27	Z27	X28	Y28	Z28	X29	Y29	Z29	X30	Y30	Z30	X31	Y31	Z31	X32	Y32	Z32	X33	Y33	Z33	X34	Y34	Z34	X35	Y35	Z35	X36	Y36	Z36	X37	Y37	Z37	X38	Y38	Z38	X39	Y39	Z39	X40	Y40	Z40	X41	Y41	Z41	X42	Y42	Z42	X43	Y43	Z43	X44	Y44	Z44	X45	Y45	Z45	X46	Y46	Z46	X47	Y47	Z47	X48	Y48	Z48	X49	Y49	Z49	X50	Y50	Z50	X51	Y51	Z51	X52	Y52	Z52	X53	Y53	Z53	X54	Y54	Z54	X55	Y55	Z55	X56	Y56	Z56	X57	Y57	Z57	X58	Y58	Z58	X59	Y59	Z59

416	2.08	408.78	1434.8	5.8849	403.27	1419.8	101.38	280.37	1359.7	-23.146	274.04	1346.9	109.27	240.57	1269.6	37.411	153.22	1069.9	40.124	382.05	1186.3	27.749	432.38	1078.9	23.531	200.71	1141.1	152.54	354.18	821.93	-143.86	321.34	1206.2	212.54	356.54	1058.9	282.8	372.41	930.27	306.65	455.89	829.61	290.45	488.67	740.24	240.66	465.22	728.32	307.67	524.64	689.05	284.12	299.28	1224.9	-155.67	298.2	1061.8	-233.55	247.16	952.28	-253.3	216.32	929.64	-187.93	290.17	854.28	-291.56	309.7	739.86	-278.54	264.85	748.92	-322.16	295.59	694.38	-328.41	282.97	638.08	225.98	248.64	476.59	171.59	320.74	551.32	184.23	232.77	283.38	94.527	199.44	203.6	80.55	325.42	652.91	-193.94	364.51	489.81	-145.77	392.37	593.37	-144.57	345.3	571.11	-173.7	404.1	406.35	-111.55	451.18	323.09	-52.97	434.44	231.3	-104.81	462.62	236.44	-49.739	580.46	82.611	-36.2	615.73	97.197	-70.142	475	91.771	-2.2834	166.84	208.43	132.5	263.7	557.28	202.02	417.77	41.88	-23.686	480.38	155.29	-49.526	316.68	893.5	242.54	535.61	47.422	-105.62	172.99	124.3	66.796	102.03	843.68	-25.61	110.48	849.43	78.772	445.55	68.005	-75.848	208.17	394.11	148.08	375.45	820.95	179.74	212.03	30.642	21.707	272.34	28.048	54.009	49.644	57.638	55.901	122.85	83.201	17.111	191.33	23.22	116	112.34	71.427	99.292
417	2.085	414.06	1434.1	5.4425	408.52	1419.1	100.95	285.65	1358.9	-23.597	279.27	1346.2	108.83	245.85	1268.8	36.958	158.59	1069.1	39.669	387.41	1185.5	27.512	437.9	1078.2	23.93	205.97	1140.4	152.15	359.98	820.6	-143.7	326.58	1205.6	212.18	361.79	1058.5	282.6	377.85	929.79	306.62	461.88	829.5	290.48	495.43	740.6	240.38	471.61	728.14	307.17	531.41	689.41	283.8	304.78	1224.1	-156.07	303.83	1060.9	-233.84	252.34	951.71	-253.74	221.47	928.88	-188.35	294.31	853.75	-292.63	312.91	739.07	-280.54	267.78	748.76	-323.75	298.02	694.03	-330.61	287.6	637.78	225.87	251.96	476.57	171.54	324.64	550.74	184.09	234.69	283.29	94.566	200.77	203.74	80.568	330.35	651.35	-193.83	368.27	487.98	-145.58	396.86	591.34	-144.36	349.62	569.43	-173.56	408.34	405.23	-111.17	457.64	323.55	-52.496	443.46	231.46	-104.66	471.45	237.13	-49.555	593.65	86.074	-36.114	628.99	101.15	-69.955	487.75	92.59	-2.5174	168.06	208.88	132.43	267.65	557.11	201.91	431.75	41.161	-24.077	491.39	156.38	-49.616	322.5	892.84	242.3	550	49.458	-105.62	173.72	124.65	66.824	107.83	842.84	-26.56	115.81	848.87	77.757	459.04	68.212	-76.16	210.78	394.35	147.95	380.65	820.43	180.2	212.1	30.678	21.679	272.4	28.002	54.046	49.946	58.873	55.74	123.38	83.909	17.018	191.27	23.258	115.81	112.69	72.157	99.185
418	2.09	419.35	1433.3	4.971	413.78	1418.4	100.48	290.94	1358.1	-24.079	284.5	1345.5	108.36	251.13	1268	36.476	163.96	1068.2	39.175	392.78	1184.8	27.25	443.44	1077.4	24.322	211.22	1139.6	151.73	365.79	819.23	-143.55	331.81	1204.9	211.79	367.05	1058	282.35	383.29	929.3	306.56	467.82	829.36	290.49	502.12	740.93	240.1	477.95	727.94	306.69	538.1	689.71	283.49	310.26	1223.2	-156.49	309.46	1059.9	-234.16	257.56	951.09	-254.19	226.68	928.07	-188.77	298.54	853.2	-293.68	316.23	738.27	-282.52	270.83	748.59	-325.32	300.56	693.65	-332.78	292.34	637.45	225.75	255.38	476.53	171.49	328.63	550.15	183.94	236.67	283.19	94.589	202.14	203.89	80.59	335.21	649.77	-193.75	372.09	486.15	-145.44	401.34	589.32	-144.22	353.95	567.74	-173.46	412.72	404.11	-110.79	464.03	323.92	-51.973	452.23	231.61	-104.45	479.99	237.76	-49.286	606.08	89.306	-35.834	641.53	104.8	-69.555	499.8	93.413	-2.6172	169.35	209.33	132.38	271.72	556.91	201.8	444.97	40.605	-24.367	501.9	157.4	-49.577	328.28	892.16	242.06	563.61	51.399	-105.46	174.47	125.01	66.863	113.67	841.99	-27.509	121.17	848.31	76.734	471.83	68.497	-76.351	213.48	394.57	147.83	385.83	819.94	180.72	212.16	30.717	21.663	272.45	27.963	54.07	50.259	60.151	55.622	123.92	84.64	16.949	191.22	23.295	115.62	113.05	72.915	99.115
419	2.095	424.65	1432.5	4.4725	419.04	1417.6	99.986	296.22	1357.3	-24.59	289.73	1344.8	107.86	256.39	1267.2	35.965	169.35	1067.3	38.642	398.15	1184	26.961	449	1076.6	24.696	216.48	1138.8	151.26	371.62	817.85	-143.43	337.01	1204.3	211.38	372.34	1057.5	282.06	388.73	928.81	306.48	473.73	829.2	290.47	508.74	741.22	239.83	484.23	727.71	306.2	544.72	689.98	283.18	315.72	1222.2	-156.93	315.09	1059	-234.51	262.83	950.43	-254.65	231.94	927.2	-189.21	302.87	852.63	-294.73	319.66	737.47	-284.46	274	748.39	-326.86	303.24	693.26	-334.9	297.18	637.1	225.61	258.92	476.46	171.43	332.73	549.54	183.76	238.72	283.07	94.596	203.57	204.05	80.618	340.02	648.18	-193.71	376.01	484.35	-145.34	405.85	587.35	-144.16	358.29	566.05	-173.42	417.26	403.02	-110.42	470.35	324.18	-51.399	460.74	231.71	-104.17	488.24	238.28	-48.927	617.73	92.232	-35.353	653.32	108.08	-68.938	511.12	94.183	-2.5731	170.73	209.78	132.33	275.9	556.69	201.68	457.37	40.165	-24.543	511.89	158.32	-49.402	334.02	891.48	241.83	576.42	53.178	-105.11	175.26	125.39	66.913	119.54	841.12	-28.454	126.58	847.75	75.712	483.88	68.808	-76.41	216.31	394.78	147.73	390.98	819.5	181.28	212.22	30.759	21.658	272.49	27.931	54.081	50.582	61.475	55.551	124.46	85.397	16.908	191.19	23.331	115.45	113.44	73.702	99.082
